<svg id="Layer_1" data-name="Layer 1" xmlns="http://www.w3.org/2000/svg" viewBox="0 0 160 26.87"><title>Artboard 1</title><path d="M10.43,1.63h8.05v.58h-.43a4.21,4.21,0,0,0-1.68.22,1.08,1.08,0,0,0-.52.78,16.29,16.29,0,0,0-.13,2.73V17.26a25,25,0,0,1-.17,3.34,5.29,5.29,0,0,1-3.08,3.93,7.51,7.51,0,0,1-3.07.58,5.39,5.39,0,0,1-3-.72,2.08,2.08,0,0,1-1.06-1.72,1.46,1.46,0,0,1,.38-1,1.21,1.21,0,0,1,.93-.4,1.26,1.26,0,0,1,.93.37,1.18,1.18,0,0,1,.38.9,1.66,1.66,0,0,1-.15.67,1.09,1.09,0,0,0-.14.46.7.7,0,0,0,.48.63,2.73,2.73,0,0,0,1.2.24,3.49,3.49,0,0,0,2.46-.93A3.8,3.8,0,0,0,13,21.41a30.29,30.29,0,0,0,.2-4.15V5.94a17.8,17.8,0,0,0-.12-2.67,1.18,1.18,0,0,0-.51-.83,4.05,4.05,0,0,0-1.71-.23h-.41Z"/><path d="M28,12H20.69c0,.5-.05.88-.05,1.13a8,8,0,0,0,.86,4.14,2.85,2.85,0,0,0,2.57,1.39,3.38,3.38,0,0,0,3.3-2.09H28a3.55,3.55,0,0,1-1.62,2,5.06,5.06,0,0,1-5.15.07,5.35,5.35,0,0,1-1.94-1.9,5.61,5.61,0,0,1-.75-3A6,6,0,0,1,20,9.7a4.68,4.68,0,0,1,3.64-1.64,4,4,0,0,1,3.18,1.26A4.24,4.24,0,0,1,28,12Zm-2.23-.51c0-.19,0-.37,0-.52a2.2,2.2,0,0,0-2.28-2.36c-1.55,0-2.47,1-2.77,2.88Z"/><path d="M40.5,17H41c-.08,1.45-.79,2.18-2.15,2.18a1.94,1.94,0,0,1-1.37-.46,2.3,2.3,0,0,1-.66-1.36,12.83,12.83,0,0,1-2.33,1.36,4.72,4.72,0,0,1-1.88.46,2.83,2.83,0,0,1-1.83-.61A2,2,0,0,1,30,17a2.83,2.83,0,0,1,1.28-2.3,15.79,15.79,0,0,1,3.54-1.92l2-.8v-.51a5.9,5.9,0,0,0-.14-1.57A1.53,1.53,0,0,0,35.92,9a2.73,2.73,0,0,0-1.54-.38c-1.28,0-2,.42-2.13,1.27s-.5,1.31-1.08,1.31a.67.67,0,0,1-.77-.75,2.23,2.23,0,0,1,1-1.56,5.06,5.06,0,0,1,3.22-.84,5.09,5.09,0,0,1,2.51.51,2.6,2.6,0,0,1,1.18,1.17,5,5,0,0,1,.29,2V16a6.71,6.71,0,0,0,.16,1.9.63.63,0,0,0,.66.42C40,18.28,40.36,17.86,40.5,17Zm-3.71-4.47-1.39.56c-2.2.89-3.29,2-3.29,3.37a1.93,1.93,0,0,0,.42,1.3,1.36,1.36,0,0,0,1.1.49,3.13,3.13,0,0,0,1.39-.4,10,10,0,0,0,1.77-1.18Z"/><path d="M44.84,8.06h.34a7,7,0,0,1,.34,2.16A6.74,6.74,0,0,1,47.44,8.6a4.45,4.45,0,0,1,2.11-.54,3.65,3.65,0,0,1,2.05.53,2.34,2.34,0,0,1,1,1.28,8.3,8.3,0,0,1,.23,2.22v3.27c0,1.2,0,1.94.06,2.21a.82.82,0,0,0,.41.59,2.7,2.7,0,0,0,1.24.2v.58H49.22v-.58h.24a1.81,1.81,0,0,0,1.2-.27,1,1,0,0,0,.32-.63c0-.24,0-.94,0-2.1V12a8.94,8.94,0,0,0-.12-1.76,1.64,1.64,0,0,0-.65-.94,2.13,2.13,0,0,0-1.35-.41,3.18,3.18,0,0,0-1.78.55,5.85,5.85,0,0,0-1.6,1.67v4.27a18.51,18.51,0,0,0,.07,2.21.79.79,0,0,0,.41.59,2.72,2.72,0,0,0,1.25.2v.58H42v-.58a2.9,2.9,0,0,0,1.22-.18.8.8,0,0,0,.43-.54,18,18,0,0,0,.08-2.28V12.24A18.37,18.37,0,0,0,43.63,10a.77.77,0,0,0-.41-.58A2.59,2.59,0,0,0,42,9.24V8.65A16.28,16.28,0,0,0,44.84,8.06Z"/><path d="M58.73,8.06h.35a7.32,7.32,0,0,1,.33,2.16A6.77,6.77,0,0,1,61.34,8.6a4.39,4.39,0,0,1,2.11-.54,3.69,3.69,0,0,1,2,.53,2.32,2.32,0,0,1,1,1.28,7.9,7.9,0,0,1,.23,2.22v3.27a18.51,18.51,0,0,0,.07,2.21.78.78,0,0,0,.4.59,2.73,2.73,0,0,0,1.24.2v.58H63.11v-.58h.25a1.84,1.84,0,0,0,1.2-.27,1.06,1.06,0,0,0,.32-.63q0-.36,0-2.1V12a8.94,8.94,0,0,0-.12-1.76,1.59,1.59,0,0,0-.65-.94,2.09,2.09,0,0,0-1.35-.41A3.21,3.21,0,0,0,61,9.42a6,6,0,0,0-1.6,1.67v4.27a18.51,18.51,0,0,0,.07,2.21.82.82,0,0,0,.41.59,2.74,2.74,0,0,0,1.26.2v.58H55.86v-.58a2.92,2.92,0,0,0,1.23-.18.76.76,0,0,0,.42-.54,15.41,15.41,0,0,0,.09-2.28V12.24A21,21,0,0,0,57.53,10a.83.83,0,0,0-.41-.58,2.66,2.66,0,0,0-1.26-.2V8.65A16.1,16.1,0,0,0,58.73,8.06Z"/><path d="M80.55,17H81c-.08,1.45-.79,2.18-2.15,2.18a1.94,1.94,0,0,1-1.37-.46,2.25,2.25,0,0,1-.66-1.36,13.18,13.18,0,0,1-2.33,1.36,4.72,4.72,0,0,1-1.88.46,2.83,2.83,0,0,1-1.83-.61A2,2,0,0,1,70,17a2.83,2.83,0,0,1,1.28-2.3,15.57,15.57,0,0,1,3.54-1.92l2-.8v-.51a5.9,5.9,0,0,0-.14-1.57A1.53,1.53,0,0,0,76,9a2.73,2.73,0,0,0-1.54-.38c-1.28,0-2,.42-2.13,1.27s-.5,1.31-1.08,1.31-.78-.25-.78-.75a2.25,2.25,0,0,1,1-1.56,6.52,6.52,0,0,1,5.73-.33,2.6,2.6,0,0,1,1.18,1.17,5,5,0,0,1,.29,2V16a7.28,7.28,0,0,0,.15,1.9.65.65,0,0,0,.67.42C80.06,18.28,80.41,17.86,80.55,17Zm-3.71-4.47-1.39.56c-2.2.89-3.29,2-3.29,3.37a1.93,1.93,0,0,0,.42,1.3,1.36,1.36,0,0,0,1.1.49,3.13,3.13,0,0,0,1.39-.4,10,10,0,0,0,1.77-1.18Z"/><path d="M88.44,1.77l2.85-.14q3.55-.18,4.8-.18a12.74,12.74,0,0,1,6,1.17,7.65,7.65,0,0,1,3.21,3.19,9.77,9.77,0,0,1,1.06,4.64,9.93,9.93,0,0,1-.58,3.48,7.38,7.38,0,0,1-1.57,2.62,6.83,6.83,0,0,1-2.33,1.58,9.16,9.16,0,0,1-2.51.68,31.67,31.67,0,0,1-3.34.13H88.36v-.58h.72a3.1,3.1,0,0,0,1.54-.28,1.36,1.36,0,0,0,.55-.88,18.66,18.66,0,0,0,.12-2.76V6.08a17.9,17.9,0,0,0-.12-2.67,1.18,1.18,0,0,0-.52-.83A4,4,0,0,0,89,2.35h-.51Zm5.34.36V13.7q0,2.57.09,3.3a1.36,1.36,0,0,0,.58,1,4.38,4.38,0,0,0,2,.3,9.44,9.44,0,0,0,3.72-.62,5.09,5.09,0,0,0,2.43-2.43,9.83,9.83,0,0,0,1-4.65A12.48,12.48,0,0,0,103,6.72a7.06,7.06,0,0,0-1.63-2.8,5.54,5.54,0,0,0-2.35-1.47,11.67,11.67,0,0,0-3.31-.39C95.1,2.06,94.44,2.08,93.78,2.13Z"/><path d="M120.26,19.35h-.57l-3.12-8.3-3.18,8.3h-.56l-3.19-8.3a7,7,0,0,0-.82-1.7,1.54,1.54,0,0,0-1.07-.28V8.49h4.77v.58a2.76,2.76,0,0,0-1.1.15.53.53,0,0,0-.29.5,7.05,7.05,0,0,0,.5,1.5l2.12,5.6L117,8.49h.5l3.14,8.33,2.3-5.93a5.07,5.07,0,0,0,.37-1.14c0-.42-.43-.64-1.29-.68V8.49h3.4v.58a1.83,1.83,0,0,0-1,.24,2,2,0,0,0-.65,1l-.28.74Z"/><path d="M132.2,17l2.43-5.81a9.53,9.53,0,0,0,.52-1.41c0-.43-.47-.65-1.41-.67V8.49h3.67v.58a1.79,1.79,0,0,0-1.25.46,6.61,6.61,0,0,0-1,1.83l-4.66,11.25a8.83,8.83,0,0,1-1.18,2.19,1.47,1.47,0,0,1-1.12.58c-.55,0-.83-.25-.83-.75s.44-1.07,1.33-1.47a4.29,4.29,0,0,0,1-.59,2.5,2.5,0,0,0,.51-.88l1-2.49-3.93-8.43a4.57,4.57,0,0,0-.87-1.4,1.8,1.8,0,0,0-1.18-.3V8.49h4.81v.58c-.85,0-1.27.2-1.27.53a6,6,0,0,0,.5,1.25Z"/><path d="M147.13,12h-7.29c0,.5-.05.88-.05,1.13a8,8,0,0,0,.86,4.14,2.85,2.85,0,0,0,2.57,1.39,3.38,3.38,0,0,0,3.3-2.09h.61a3.55,3.55,0,0,1-1.62,2,5.06,5.06,0,0,1-5.15.07,5.35,5.35,0,0,1-1.94-1.9,5.61,5.61,0,0,1-.75-3,6,6,0,0,1,1.45-4.12,4.7,4.7,0,0,1,3.64-1.64,4,4,0,0,1,3.18,1.26A4.24,4.24,0,0,1,147.13,12Zm-2.23-.51c0-.19,0-.37,0-.52a2.2,2.2,0,0,0-2.28-2.36c-1.55,0-2.47,1-2.77,2.88Z"/><path d="M152.48,10.73a4.4,4.4,0,0,1,1.41-1.9,3.15,3.15,0,0,1,1.91-.77,1.71,1.71,0,0,1,1.33.53,1.55,1.55,0,0,1,.49,1.07.93.93,0,0,1-.25.64.8.8,0,0,1-.61.27c-.42,0-.75-.32-1-1-.15-.42-.38-.64-.69-.64a2.11,2.11,0,0,0-1.31.75,3.57,3.57,0,0,0-1,1.55,9.15,9.15,0,0,0-.21,2.21v1.87c0,1.11,0,1.81,0,2.1a.92.92,0,0,0,.36.67,2.11,2.11,0,0,0,1.14.23h.36v.58h-5.56v-.58h.27a2.08,2.08,0,0,0,1.09-.21.83.83,0,0,0,.39-.6,17.84,17.84,0,0,0,.07-2.19V12.41c0-1.13,0-1.83-.05-2.12a.91.91,0,0,0-.36-.66,2,2,0,0,0-1.14-.24h-.27V8.82a18.73,18.73,0,0,0,3.15-.76A8.64,8.64,0,0,1,152.48,10.73Z"/></svg>