<svg xmlns="http://www.w3.org/2000/svg" viewBox="0 0 1129.5 810"><defs><style>.cls-1,.cls-12{fill:#fff;}.cls-2,.cls-7{fill:#2e3192;}.cls-3{fill:#ff0;}.cls-4{fill:#fbb03b;}.cls-5{fill:lime;}.cls-6{fill:#fcff00;}.cls-12,.cls-7{font-size:50px;}.cls-7{font-family:PirulenRg-Regular, Pirulen;}.cls-11,.cls-12,.cls-8{font-family:HelveticaNeue, Helvetica Neue;}.cls-8{letter-spacing:0.02em;}.cls-9{letter-spacing:0.04em;}.cls-10{letter-spacing:0.04em;fill:#000;}.cls-11{font-size:34px;fill:#f7931e;}.cls-12{letter-spacing:-0.07em;}</style></defs><title>web_Demo</title><g id="Layer_9" data-name="Layer 9"><rect class="cls-1" width="1089" height="810"/></g><g id="blueCirc"><circle class="cls-2" cx="103.5" cy="508.5" r="58.5"/><path class="cls-2" d="M1008,351V198h86.61a112.5,112.5,0,1,0,16.89,153Z" transform="translate(18 18)"/></g><g id="yellowBase"><rect class="cls-3" x="18" y="18" width="288" height="252"/></g><g id="orangeBase"><rect class="cls-4" x="99" y="441" width="162" height="63"/><path class="cls-4" d="M504,0V216h72a54,54,0,0,1,108,0H792V0Z" transform="translate(18 18)"/><polygon class="cls-3" points="1008 162 1008 234 963 234 963 162 810 162 810 306 1042 306 1042 162 1008 162"/><rect class="cls-4" x="630" y="486" width="324" height="54"/></g><g id="blueBase"><rect class="cls-2" x="18" y="591" width="505" height="195"/><rect class="cls-2" x="630" y="306" width="288" height="144"/><rect class="cls-2" x="108" y="450" width="36" height="36"/><rect class="cls-2" x="117" y="468" width="180" height="9"/><rect class="cls-2" x="117" y="54" width="9" height="153"/><rect class="cls-2" x="243" y="54" width="153" height="9"/></g><g id="baseGreen"><polygon class="cls-5" points="558 423 342 423 342 450 306 450 306 558 504 558 504 477 558 477 558 423"/><circle class="cls-5" cx="308.25" cy="560.25" r="58.5"/><circle class="cls-1" cx="308.25" cy="560.25" r="45"/><path class="cls-5" d="M936,577.5c0-.5,0-1,0-1.5H675V768h349V666A88.49,88.49,0,0,1,936,577.5Z" transform="translate(18 18)"/><rect class="cls-5" y="648" width="306" height="9"/><rect class="cls-5" x="270" y="198" width="225" height="63"/></g><g id="yellowCirc"><polygon class="cls-6" points="523 450 523 522 423 522 423 540 523 540 523 786 639 786 639 639 666 639 666 450 523 450"/></g><g id="heading-text1"><text class="cls-7" transform="translate(54 323.2)">web design<tspan class="cls-8"><tspan x="0" y="60">V</tspan><tspan class="cls-9" x="31.7" y="60">isual Communications</tspan><tspan class="cls-10" x="567.29" y="60"> </tspan></tspan><tspan class="cls-11"><tspan x="0" y="100.8">Century College</tspan></tspan></text><path class="cls-3" d="M1026,0H972c0,.33,0,.66,0,1a53,53,0,0,0,53,53c.34,0,.67,0,1,0Z" transform="translate(18 18)"/></g><g id="heading-text2"><text class="cls-12" transform="translate(639 378.6)">T<tspan class="cls-9" x="25.2" y="0">echnology</tspan></text></g></svg>