<svg xmlns="http://www.w3.org/2000/svg" viewBox="0 0 913 738"><defs><style>.cls-1{fill:#fbb03b;}.cls-2{fill:#ff0;}.cls-3{fill:#2e3192;}.cls-4{fill:#fff;}</style></defs><title>miisc (2)</title><g id="Layer_2" data-name="Layer 2"><g id="miisc"><rect class="cls-1" x="851" y="690" width="9" height="27"/><rect class="cls-2" x="539" y="472" width="180" height="6"/><rect class="cls-2" x="756" y="372" width="38" height="38"/><rect class="cls-2" x="158" y="42" width="381" height="7"/><rect class="cls-3" x="675" width="34" height="187" transform="translate(1384 187) rotate(180)"/><rect class="cls-3" x="658" width="4" height="184"/><rect class="cls-4" x="674" y="54" width="23" height="105"/><circle class="cls-3" cx="493" cy="204" r="38"/><rect class="cls-3" x="878" y="703" width="35" height="35"/><rect class="cls-1" x="741" y="30" width="106" height="5"/><rect class="cls-1" x="741" y="47" width="106" height="5"/><rect class="cls-1" x="741" y="64" width="106" height="5"/><rect class="cls-1" x="741" y="81" width="106" height="5"/><rect class="cls-1" x="869" y="442" width="3" height="122"/><rect class="cls-1" x="877" y="442" width="3" height="122"/><rect class="cls-1" x="886" y="442" width="3" height="122"/><rect class="cls-3" x="513" y="627" width="50" height="9"/><rect class="cls-4" x="347" y="420" width="9" height="54"/><circle class="cls-4" cx="20" cy="698" r="20"/><circle class="cls-4" cx="70.33" cy="698" r="20"/><circle class="cls-4" cx="120.67" cy="698" r="20"/><circle class="cls-4" cx="171" cy="698" r="20"/><rect class="cls-1" x="697" y="620" width="106" height="5"/><rect class="cls-1" x="697" y="637" width="106" height="5"/><rect class="cls-1" x="697" y="654" width="106" height="5"/><rect class="cls-1" x="697" y="671" width="106" height="5"/></g></g></svg>