<svg xmlns="http://www.w3.org/2000/svg" viewBox="0 0 702 718"><defs><style>.cls-1{fill:#fbb03b;}</style></defs><title>smallOranges</title><g id="Layer_2" data-name="Layer 2"><g id="smallOranges"><path class="cls-1" d="M72,718A77.33,77.33,0,0,0,0,646v72Z"/><rect class="cls-1" x="441" y="553" width="9" height="99"/><rect class="cls-1" x="639" y="580" width="63" height="18"/><rect class="cls-1" x="675" y="562" width="27" height="9"/><rect class="cls-1" x="385" y="101" width="135" height="29"/><rect class="cls-1" x="302" y="94" width="8" height="80"/><rect class="cls-1" x="36" y="161" width="45" height="45"/><rect class="cls-1" x="155" width="30" height="30"/><rect class="cls-1" x="155" y="40" width="30" height="30"/><rect class="cls-1" x="155" y="79" width="30" height="30"/><rect class="cls-1" x="155" y="119" width="30" height="30"/><rect class="cls-1" x="516" y="397" width="30" height="30"/><rect class="cls-1" x="516" y="437" width="30" height="30"/><rect class="cls-1" x="516" y="476" width="30" height="30"/><rect class="cls-1" x="516" y="516" width="30" height="30"/></g></g></svg>