<svg xmlns="http://www.w3.org/2000/svg" viewBox="0 0 1024 768"><defs><style>.cls-1{fill:#fff;}.cls-2{fill:#2e3192;}.cls-3{fill:#ff0;}.cls-4{fill:#fbb03b;}.cls-5{fill:lime;}.cls-6{fill:#fcff00;}.cls-7{fill:#f7931e;}</style></defs><title>Artboard 1</title><g id="whitebkgd"><rect class="cls-1" width="1024" height="768"/><rect class="cls-2" x="657" y="440" width="243" height="3"/></g><g id="blueCirc"><circle class="cls-2" cx="85.5" cy="490.5" r="58.5"/><path class="cls-2" d="M1024,351h-16V198h16V171c-.83,0-1.66,0-2.5,0a112.5,112.5,0,0,0,0,225c.84,0,1.67,0,2.5,0Z"/></g><g id="yellowBase"><rect class="cls-3" width="288" height="252"/></g><g id="orangeBase"><rect class="cls-4" x="81" y="423" width="162" height="63"/><path class="cls-4" d="M504,0V216h72a54,54,0,0,1,108,0H792V0Z"/><polygon class="cls-3" points="990 144 990 216 945 216 945 144 792 144 792 288 1024 288 1024 144 990 144"/><rect class="cls-4" x="612" y="468" width="324" height="54"/><circle class="cls-4" cx="504.5" cy="576.5" r="83.5"/></g><g id="blueBase"><rect class="cls-2" y="573" width="505" height="195"/><rect class="cls-2" x="612" y="288" width="288" height="144"/><rect class="cls-2" x="90" y="432" width="36" height="36"/><rect class="cls-2" x="99" y="450" width="180" height="9"/><rect class="cls-2" x="99" y="36" width="9" height="153"/><rect class="cls-2" x="225" y="36" width="153" height="9"/><rect class="cls-2" x="364" y="384" width="185" height="38"/></g><g id="baseGreen"><polygon class="cls-5" points="540 405 324 405 324 432 288 432 288 540 486 540 486 459 540 459 540 405"/><circle class="cls-5" cx="290.25" cy="542.25" r="58.5"/><circle class="cls-1" cx="290.25" cy="542.25" r="45"/><path class="cls-5" d="M936,577.5c0-.5,0-1,0-1.5H675V768h349V666A88.49,88.49,0,0,1,936,577.5Z"/><rect class="cls-5" y="630" width="288" height="9"/><rect class="cls-5" x="252" y="180" width="225" height="63"/></g><g id="yellowBase2"><polygon class="cls-6" points="505 432 505 504 405 504 405 522 505 522 505 768 621 768 621 621 648 621 648 432 505 432"/></g><g id="yellowCirc"><path class="cls-3" d="M1026,0H972c0,.33,0,.66,0,1a53,53,0,0,0,53,53c.34,0,.67,0,1,0Z"/></g><g id="heading-text1"><path class="cls-2" d="M81.7,305.2l-12.2-27-12.45,27H52.2L36,270h6.4l12.25,27L67,270h5l12.2,27L96.5,270H103L86.7,305.2Z"/><path class="cls-2" d="M106.2,305.2V270h36.2v5.2H112.85V284H140.9v5.2H112.85V300H142.4v5.2Z"/><path class="cls-2" d="M148.05,305.2V270H176.7a20.49,20.49,0,0,1,5,.52A9.12,9.12,0,0,1,185,272a5.85,5.85,0,0,1,1.88,2.4,8.12,8.12,0,0,1,.6,3.18v3.25a6.49,6.49,0,0,1-1.13,3.87,4.81,4.81,0,0,1-3,2,7.27,7.27,0,0,1,3.3,1.87,5.32,5.32,0,0,1,1.3,3.88v5.15a7.94,7.94,0,0,1-.53,2.87,5.82,5.82,0,0,1-1.8,2.43,9.42,9.42,0,0,1-3.42,1.67,19.51,19.51,0,0,1-5.4.63ZM180.85,278a2.41,2.41,0,0,0-.9-2.1,5.88,5.88,0,0,0-3.25-.65h-22v9.15h22a5.88,5.88,0,0,0,3.25-.65,2.41,2.41,0,0,0,.9-2.1Zm.45,14.6a2.43,2.43,0,0,0-1.25-2.33,6.82,6.82,0,0,0-3.25-.67H154.7V300h22.1a6.25,6.25,0,0,0,3.25-.75,3.11,3.11,0,0,0,1.25-2.9Z"/><path class="cls-2" d="M219.2,305.2V270h32.25a25.5,25.5,0,0,1,6.25.65,9.73,9.73,0,0,1,4,2,7,7,0,0,1,2.12,3.25,14.84,14.84,0,0,1,.63,4.55v14.75a13.7,13.7,0,0,1-.63,4.37,6.72,6.72,0,0,1-2.12,3.13,10.21,10.21,0,0,1-4,1.9,25.5,25.5,0,0,1-6.25.65Zm38.6-24.8a8.86,8.86,0,0,0-.3-2.5,3.17,3.17,0,0,0-1-1.6,4.39,4.39,0,0,0-2-.85,15.43,15.43,0,0,0-3.07-.25h-25.6V300h25.6a15.43,15.43,0,0,0,3.07-.25,4.74,4.74,0,0,0,2-.8,2.93,2.93,0,0,0,1-1.5,7.9,7.9,0,0,0,.3-2.35Z"/><path class="cls-2" d="M270.7,305.2V270h36.2v5.2H277.35V284h28v5.2h-28V300H306.9v5.2Z"/><path class="cls-2" d="M313,305.2V300h30.6q4.39,0,4.4-3.25V292.3q0-3.26-4.4-3.25H322.9a17.93,17.93,0,0,1-5.1-.63,9.31,9.31,0,0,1-3.43-1.75,6.62,6.62,0,0,1-1.92-2.67,9.46,9.46,0,0,1-.6-3.45V278.5a9.46,9.46,0,0,1,.6-3.45,6.65,6.65,0,0,1,1.92-2.68,9.47,9.47,0,0,1,3.43-1.75,18.33,18.33,0,0,1,5.1-.62h29.8v5.2H322.9c-2.94,0-4.4,1.08-4.4,3.25v2.15c0,2.17,1.46,3.25,4.4,3.25h20.7a18.33,18.33,0,0,1,5.1.62,9.34,9.34,0,0,1,3.42,1.75,6.58,6.58,0,0,1,1.93,2.68,9.46,9.46,0,0,1,.6,3.45v4.35a9.46,9.46,0,0,1-.6,3.45,6.55,6.55,0,0,1-1.93,2.67,9.19,9.19,0,0,1-3.42,1.75,17.93,17.93,0,0,1-5.1.63Z"/><path class="cls-2" d="M360.35,305.2V270H367v35.2Z"/><path class="cls-2" d="M386.05,305.2q-12.56,0-12.55-7.6v-20q0-7.61,12.55-7.6H413.6v5.2H386.05c-3.94,0-5.9.8-5.9,2.4v20c0,1.6,2,2.4,5.9,2.4H401.6q5.89,0,5.9-2.3V286h6.65v11.7q0,7.5-12.55,7.5Z"/><path class="cls-2" d="M463.65,305.2,426.1,277.8v27.4h-5.8V270h5.75l35.05,26.15V270h5.8v35.2Z"/><path class="cls-2" d="M48.55,365.2,36,329.5h5.1l10.2,30.95h.1L61.7,329.5h5L54,365.2Z"/><path class="cls-2" d="M71.15,334.7v-5.2H75.4v5.2Zm4.25,4.65V365.2H71.15V339.35Z"/><path class="cls-2" d="M87.3,359.42A4.48,4.48,0,0,0,88.87,361a7.07,7.07,0,0,0,2.2.83,12.41,12.41,0,0,0,2.53.25,15.49,15.49,0,0,0,2.1-.15,7.5,7.5,0,0,0,2-.55,3.81,3.81,0,0,0,1.53-1.18,3.1,3.1,0,0,0,.6-2,2.84,2.84,0,0,0-1.25-2.5,10.55,10.55,0,0,0-3.13-1.38c-1.25-.35-2.6-.66-4.07-.95a20.67,20.67,0,0,1-4.08-1.2A8.34,8.34,0,0,1,84.2,350,5.66,5.66,0,0,1,83,346.1a6.21,6.21,0,0,1,.87-3.35,7.42,7.42,0,0,1,2.25-2.28,10.63,10.63,0,0,1,3.1-1.3,14.5,14.5,0,0,1,3.43-.42,20.38,20.38,0,0,1,4.05.37,9.5,9.5,0,0,1,3.27,1.3,6.79,6.79,0,0,1,2.28,2.5,9.45,9.45,0,0,1,1,3.93H99a4.33,4.33,0,0,0-.65-2.08,4.21,4.21,0,0,0-1.4-1.32,6.46,6.46,0,0,0-1.88-.73A9.58,9.58,0,0,0,93,342.5a12.74,12.74,0,0,0-1.93.15,6.41,6.41,0,0,0-1.77.52,3.65,3.65,0,0,0-1.3,1,2.56,2.56,0,0,0-.5,1.63,2.4,2.4,0,0,0,.77,1.82,6,6,0,0,0,2,1.2,16.29,16.29,0,0,0,2.7.8l3,.68a31.07,31.07,0,0,1,3.12.85,10,10,0,0,1,2.7,1.32,6.41,6.41,0,0,1,1.9,2.08,6,6,0,0,1,.73,3.1,7.18,7.18,0,0,1-1,3.9,7.62,7.62,0,0,1-2.55,2.5,10.7,10.7,0,0,1-3.55,1.32,20.9,20.9,0,0,1-3.92.38,18.21,18.21,0,0,1-4.1-.45,9.94,9.94,0,0,1-3.45-1.48,7.47,7.47,0,0,1-2.4-2.7,9.35,9.35,0,0,1-1-4.07h4.25A4.74,4.74,0,0,0,87.3,359.42Z"/><path class="cls-2" d="M128.5,365.2v-4.1h-.1a8.67,8.67,0,0,1-3.45,3.52,10.34,10.34,0,0,1-5,1.13,11.57,11.57,0,0,1-4.25-.68,6.82,6.82,0,0,1-2.75-1.92,7.33,7.33,0,0,1-1.48-3,16.14,16.14,0,0,1-.42-3.82v-17h4.25v17.5a5.14,5.14,0,0,0,1.4,3.8,5.22,5.22,0,0,0,3.85,1.4,8.64,8.64,0,0,0,3.37-.6,6.36,6.36,0,0,0,2.38-1.7,7.2,7.2,0,0,0,1.42-2.58,10.31,10.31,0,0,0,.48-3.22v-14.6h4.25V365.2Z"/><path class="cls-2" d="M163.85,365.1a6,6,0,0,1-3,.65,3.66,3.66,0,0,1-2.63-.93,4,4,0,0,1-1-3,10.13,10.13,0,0,1-4.08,3,14,14,0,0,1-8.35.53,7.73,7.73,0,0,1-2.72-1.25,6,6,0,0,1-1.83-2.23,7.44,7.44,0,0,1-.67-3.32,7.57,7.57,0,0,1,.75-3.6,6.71,6.71,0,0,1,2-2.28,9.15,9.15,0,0,1,2.8-1.32c1.05-.3,2.13-.55,3.23-.75s2.27-.41,3.32-.53a17.4,17.4,0,0,0,2.78-.5,4.53,4.53,0,0,0,1.9-.95,2.29,2.29,0,0,0,.7-1.82,4.26,4.26,0,0,0-.53-2.25,3.58,3.58,0,0,0-1.35-1.3,5.44,5.44,0,0,0-1.85-.6,13.83,13.83,0,0,0-2-.15,9,9,0,0,0-4.5,1c-1.2.69-1.85,2-1.95,3.88h-4.25a9.23,9.23,0,0,1,1-4,7.66,7.66,0,0,1,2.4-2.68,10.13,10.13,0,0,1,3.42-1.47,18.15,18.15,0,0,1,4.13-.45A23.63,23.63,0,0,1,155,339a9.3,9.3,0,0,1,3.13,1,6.08,6.08,0,0,1,2.25,2.17,6.91,6.91,0,0,1,.85,3.64v13.28a10.37,10.37,0,0,0,.17,2.19c.12.47.51.7,1.18.7a5.29,5.29,0,0,0,1.3-.2ZM157,351.85a5.2,5.2,0,0,1-2.1.87q-1.31.27-2.73.45c-1,.11-1.9.25-2.87.4a10.72,10.72,0,0,0-2.6.72,4.7,4.7,0,0,0-1.88,1.42,4,4,0,0,0-.72,2.51,3.32,3.32,0,0,0,1.52,2.93,4.58,4.58,0,0,0,1.58.65,8.93,8.93,0,0,0,1.9.2,10.15,10.15,0,0,0,3.6-.57A7.37,7.37,0,0,0,155.1,360a5.73,5.73,0,0,0,1.4-1.89,4.73,4.73,0,0,0,.45-1.91Z"/><path class="cls-2" d="M174.35,329.5v35.7H170.1V329.5Z"/><path class="cls-2" d="M221.22,334.55a11,11,0,0,0-6.47-1.9,11.61,11.61,0,0,0-5.48,1.2,10.91,10.91,0,0,0-3.75,3.22,13.9,13.9,0,0,0-2.17,4.63,20.5,20.5,0,0,0-.7,5.4,22.92,22.92,0,0,0,.7,5.77,13.72,13.72,0,0,0,2.17,4.75,10.77,10.77,0,0,0,3.78,3.23,11.72,11.72,0,0,0,5.5,1.2,10.51,10.51,0,0,0,4.17-.78,9.24,9.24,0,0,0,3.15-2.15,9.68,9.68,0,0,0,2.08-3.27,13.62,13.62,0,0,0,.9-4.1h4.75q-.71,6.75-4.65,10.5T214.4,366a17.18,17.18,0,0,1-7.25-1.43,14.11,14.11,0,0,1-5.15-3.92,16.93,16.93,0,0,1-3.08-5.9,25.3,25.3,0,0,1-1-7.3,23.68,23.68,0,0,1,1.1-7.33,17.71,17.71,0,0,1,3.22-6,15.22,15.22,0,0,1,5.3-4,17.15,17.15,0,0,1,7.28-1.47,18.4,18.4,0,0,1,5.3.75,14.25,14.25,0,0,1,4.45,2.2,12.43,12.43,0,0,1,3.25,3.62,13.48,13.48,0,0,1,1.7,5h-4.75A8.87,8.87,0,0,0,221.22,334.55Z"/><path class="cls-2" d="M236.5,347a12,12,0,0,1,2.4-4.3,11.29,11.29,0,0,1,3.95-2.87,14.46,14.46,0,0,1,10.82,0,11.49,11.49,0,0,1,3.93,2.87A12.3,12.3,0,0,1,260,347a17.35,17.35,0,0,1,.8,5.33,17.06,17.06,0,0,1-.8,5.3,12.25,12.25,0,0,1-2.4,4.27,11.06,11.06,0,0,1-3.93,2.85,14.72,14.72,0,0,1-10.82,0,10.88,10.88,0,0,1-3.95-2.85,12,12,0,0,1-2.4-4.27,16.77,16.77,0,0,1-.8-5.3A17.05,17.05,0,0,1,236.5,347Zm4.32,9.5a8.6,8.6,0,0,0,1.73,3,7.4,7.4,0,0,0,2.57,1.88,7.84,7.84,0,0,0,6.25,0,7.53,7.53,0,0,0,2.58-1.88,8.74,8.74,0,0,0,1.72-3,14.15,14.15,0,0,0,0-8.35,9.12,9.12,0,0,0-1.72-3.07,7.46,7.46,0,0,0-2.58-1.9,7.84,7.84,0,0,0-6.25,0,7.33,7.33,0,0,0-2.57,1.9,9,9,0,0,0-1.73,3.07,14.37,14.37,0,0,0,0,8.35Z"/><path class="cls-2" d="M271.85,339.35v3.8h.1a10.07,10.07,0,0,1,12.7-3.4,5.63,5.63,0,0,1,2.75,3.4,9,9,0,0,1,3.42-3.25,9.65,9.65,0,0,1,4.68-1.15,13.65,13.65,0,0,1,3.52.42,7.42,7.42,0,0,1,2.7,1.33,6,6,0,0,1,1.75,2.32,8.47,8.47,0,0,1,.63,3.43V365.2h-4.25V348.25a12.31,12.31,0,0,0-.2-2.25,4.84,4.84,0,0,0-.75-1.83,3.83,3.83,0,0,0-1.53-1.22,6,6,0,0,0-2.52-.45,6.69,6.69,0,0,0-5,1.8,6.49,6.49,0,0,0-1.8,4.8v16.1h-4.25V348.25a11,11,0,0,0-.23-2.3,5,5,0,0,0-.77-1.83,3.75,3.75,0,0,0-1.48-1.2,5.78,5.78,0,0,0-2.37-.42,6.34,6.34,0,0,0-3.18.75,7.21,7.21,0,0,0-3.35,4,6.17,6.17,0,0,0-.37,1.88v16.1h-4.25V339.35Z"/><path class="cls-2" d="M316.55,339.35v3.8h.1a10.07,10.07,0,0,1,12.7-3.4,5.63,5.63,0,0,1,2.75,3.4,9,9,0,0,1,3.42-3.25,9.65,9.65,0,0,1,4.68-1.15,13.65,13.65,0,0,1,3.52.42,7.42,7.42,0,0,1,2.7,1.33,6,6,0,0,1,1.75,2.32,8.47,8.47,0,0,1,.63,3.43V365.2h-4.25V348.25a12.31,12.31,0,0,0-.2-2.25,4.84,4.84,0,0,0-.75-1.83,3.83,3.83,0,0,0-1.53-1.22,6,6,0,0,0-2.52-.45,6.69,6.69,0,0,0-4.95,1.8,6.49,6.49,0,0,0-1.8,4.8v16.1h-4.25V348.25a11,11,0,0,0-.23-2.3,5,5,0,0,0-.77-1.83,3.75,3.75,0,0,0-1.48-1.2,5.78,5.78,0,0,0-2.37-.42,6.34,6.34,0,0,0-3.18.75,7.21,7.21,0,0,0-3.35,4,6.17,6.17,0,0,0-.37,1.88v16.1h-4.25V339.35Z"/><path class="cls-2" d="M374.65,365.2v-4.1h-.1a8.67,8.67,0,0,1-3.45,3.52,10.34,10.34,0,0,1-5,1.13,11.57,11.57,0,0,1-4.25-.68,6.75,6.75,0,0,1-2.75-1.92,7.21,7.21,0,0,1-1.48-3,16.14,16.14,0,0,1-.42-3.82v-17h4.25v17.5a5.1,5.1,0,0,0,1.4,3.8,5.2,5.2,0,0,0,3.85,1.4,8.64,8.64,0,0,0,3.37-.6,6.44,6.44,0,0,0,2.38-1.7,7.35,7.35,0,0,0,1.42-2.58,10.31,10.31,0,0,0,.48-3.22v-14.6h4.25V365.2Z"/><path class="cls-2" d="M391.1,339.35v4.1h.1a8.94,8.94,0,0,1,8.4-4.7,11.18,11.18,0,0,1,4.25.7,7.08,7.08,0,0,1,2.75,1.95,7.16,7.16,0,0,1,1.47,3,16.2,16.2,0,0,1,.43,3.83v17h-4.25V347.7a5.14,5.14,0,0,0-1.4-3.8,5.23,5.23,0,0,0-3.85-1.4,8.69,8.69,0,0,0-3.38.6,6.32,6.32,0,0,0-2.37,1.7,7.26,7.26,0,0,0-1.43,2.57,10.42,10.42,0,0,0-.47,3.23v14.6H387.1V339.35Z"/><path class="cls-2" d="M417.2,334.7v-5.2h4.25v5.2Zm4.25,4.65V365.2H417.2V339.35Z"/><path class="cls-2" d="M445.54,343.85a6.43,6.43,0,0,0-4.29-1.35,7.86,7.86,0,0,0-3.85.85,6.91,6.91,0,0,0-2.48,2.25,9.27,9.27,0,0,0-1.32,3.22,17.44,17.44,0,0,0-.41,3.78,14.52,14.52,0,0,0,.43,3.5,9.49,9.49,0,0,0,1.32,3,6.69,6.69,0,0,0,2.35,2.13,7.1,7.1,0,0,0,3.46.8,6.94,6.94,0,0,0,4.92-1.65,7.49,7.49,0,0,0,2.18-4.65h4.34a11.84,11.84,0,0,1-3.57,7.4,11.25,11.25,0,0,1-7.83,2.6,13.54,13.54,0,0,1-5.22-.95,10.06,10.06,0,0,1-3.8-2.7,11.7,11.7,0,0,1-2.3-4.18,17.27,17.27,0,0,1-.78-5.32,19.05,19.05,0,0,1,.75-5.43,12.53,12.53,0,0,1,2.28-4.4,10.76,10.76,0,0,1,3.82-2.95,12.66,12.66,0,0,1,5.36-1.07,15.61,15.61,0,0,1,4.12.52,10.12,10.12,0,0,1,3.4,1.63,9,9,0,0,1,2.43,2.77,10.22,10.22,0,0,1,1.19,4h-4.39A6.52,6.52,0,0,0,445.54,343.85Z"/><path class="cls-2" d="M481.89,365.1a6,6,0,0,1-3.05.65,3.63,3.63,0,0,1-2.62-.93,4,4,0,0,1-1-3,10,10,0,0,1-4.07,3,14,14,0,0,1-8.35.53,7.78,7.78,0,0,1-2.73-1.25,6.07,6.07,0,0,1-1.82-2.23,7.44,7.44,0,0,1-.68-3.32,7.57,7.57,0,0,1,.75-3.6,6.63,6.63,0,0,1,2-2.28,9.15,9.15,0,0,1,2.8-1.32c1.05-.3,2.12-.55,3.22-.75s2.28-.41,3.33-.53a17.27,17.27,0,0,0,2.77-.5,4.47,4.47,0,0,0,1.9-.95,2.29,2.29,0,0,0,.7-1.82,4.26,4.26,0,0,0-.52-2.25,3.58,3.58,0,0,0-1.35-1.3,5.51,5.51,0,0,0-1.85-.6,14,14,0,0,0-2-.15,9,9,0,0,0-4.5,1c-1.2.69-1.85,2-2,3.88h-4.25a9.23,9.23,0,0,1,1-4,7.66,7.66,0,0,1,2.4-2.68,10.18,10.18,0,0,1,3.43-1.47,18.07,18.07,0,0,1,4.12-.45A23.76,23.76,0,0,1,473,339a9.24,9.24,0,0,1,3.12,1,5.93,5.93,0,0,1,2.25,2.17,6.91,6.91,0,0,1,.85,3.64v13.28a9.6,9.6,0,0,0,.18,2.19c.12.47.51.7,1.17.7a5.29,5.29,0,0,0,1.3-.2ZM475,351.85a5.2,5.2,0,0,1-2.1.87c-.86.18-1.77.33-2.72.45s-1.91.25-2.88.4a10.85,10.85,0,0,0-2.6.72,4.67,4.67,0,0,0-1.87,1.42,4,4,0,0,0-.73,2.51,3.42,3.42,0,0,0,.43,1.76,3.34,3.34,0,0,0,1.1,1.17,4.52,4.52,0,0,0,1.57.65,9,9,0,0,0,1.9.2,10.15,10.15,0,0,0,3.6-.57,7.37,7.37,0,0,0,2.45-1.45,5.6,5.6,0,0,0,1.4-1.89,4.73,4.73,0,0,0,.45-1.91Z"/><path class="cls-2" d="M498.94,339.35v3.75h-5.15v16a4.34,4.34,0,0,0,.13,1.2,1.24,1.24,0,0,0,.47.7,2.1,2.1,0,0,0,1,.32,13.91,13.91,0,0,0,1.62.08h1.95v3.75h-3.25a15.14,15.14,0,0,1-2.82-.23,4.1,4.1,0,0,1-1.9-.82,3.55,3.55,0,0,1-1.08-1.7,9.92,9.92,0,0,1-.35-2.9V343.1h-4.4v-3.75h4.4V331.6h4.25v7.75Z"/><path class="cls-2" d="M505.94,334.7v-5.2h4.25v5.2Zm4.25,4.65V365.2h-4.25V339.35Z"/><path class="cls-2" d="M518.24,347a12.3,12.3,0,0,1,2.4-4.3,11.47,11.47,0,0,1,4-2.87,14.49,14.49,0,0,1,10.83,0,11.35,11.35,0,0,1,3.92,2.87,12,12,0,0,1,2.4,4.3,17.05,17.05,0,0,1,.8,5.33,16.77,16.77,0,0,1-.8,5.3,12,12,0,0,1-2.4,4.27,10.94,10.94,0,0,1-3.92,2.85,14.75,14.75,0,0,1-10.83,0,11,11,0,0,1-4-2.85,12.25,12.25,0,0,1-2.4-4.27,17.06,17.06,0,0,1-.8-5.3A17.35,17.35,0,0,1,518.24,347Zm4.33,9.5a8.59,8.59,0,0,0,1.72,3,7.43,7.43,0,0,0,2.58,1.88,7.68,7.68,0,0,0,3.12.65,7.77,7.77,0,0,0,3.13-.65,7.4,7.4,0,0,0,2.57-1.88,8.6,8.6,0,0,0,1.73-3,14.37,14.37,0,0,0,0-8.35,9,9,0,0,0-1.73-3.07,7.33,7.33,0,0,0-2.57-1.9,7.77,7.77,0,0,0-3.13-.65,7.68,7.68,0,0,0-3.12.65,7.36,7.36,0,0,0-2.58,1.9,9,9,0,0,0-1.72,3.07,14.15,14.15,0,0,0,0,8.35Z"/><path class="cls-2" d="M553.59,339.35v4.1h.1a9,9,0,0,1,8.4-4.7,11.14,11.14,0,0,1,4.25.7,7.08,7.08,0,0,1,2.75,1.95,7.29,7.29,0,0,1,1.48,3,16.22,16.22,0,0,1,.42,3.83v17h-4.25V347.7a5.14,5.14,0,0,0-1.4-3.8,5.22,5.22,0,0,0-3.85-1.4,8.64,8.64,0,0,0-3.37.6,6.36,6.36,0,0,0-2.38,1.7,7.24,7.24,0,0,0-1.42,2.57,10.42,10.42,0,0,0-.48,3.23v14.6h-4.25V339.35Z"/><path class="cls-2" d="M582.69,359.42a4.51,4.51,0,0,0,1.58,1.55,7,7,0,0,0,2.2.83,12.24,12.24,0,0,0,2.52.25,15.49,15.49,0,0,0,2.1-.15,7.58,7.58,0,0,0,2-.55,3.84,3.84,0,0,0,1.52-1.18,3.1,3.1,0,0,0,.6-2,2.82,2.82,0,0,0-1.25-2.5,10.48,10.48,0,0,0-3.12-1.38c-1.25-.35-2.61-.66-4.08-.95a20.77,20.77,0,0,1-4.07-1.2,8.38,8.38,0,0,1-3.13-2.17,5.66,5.66,0,0,1-1.25-3.9,6.13,6.13,0,0,1,.88-3.35,7.2,7.2,0,0,1,2.25-2.28,10.52,10.52,0,0,1,3.1-1.3,14.42,14.42,0,0,1,3.42-.42,20.38,20.38,0,0,1,4,.37,9.47,9.47,0,0,1,3.28,1.3,6.69,6.69,0,0,1,2.27,2.5,9.45,9.45,0,0,1,1,3.93h-4.25a4.23,4.23,0,0,0-.65-2.08,4.11,4.11,0,0,0-1.4-1.32,6.51,6.51,0,0,0-1.87-.73,9.74,9.74,0,0,0-2.08-.22,12.61,12.61,0,0,0-1.92.15,6.48,6.48,0,0,0-1.78.52,3.65,3.65,0,0,0-1.3,1,2.56,2.56,0,0,0-.5,1.63,2.38,2.38,0,0,0,.78,1.82,5.87,5.87,0,0,0,2,1.2,16.29,16.29,0,0,0,2.7.8l3,.68a32,32,0,0,1,3.13.85,10.28,10.28,0,0,1,2.7,1.32,6.64,6.64,0,0,1,1.9,2.08,6.13,6.13,0,0,1,.72,3.1,7.18,7.18,0,0,1-1,3.9,7.62,7.62,0,0,1-2.55,2.5,10.78,10.78,0,0,1-3.55,1.32,21.09,21.09,0,0,1-3.93.38,18.21,18.21,0,0,1-4.1-.45,9.94,9.94,0,0,1-3.45-1.48,7.47,7.47,0,0,1-2.4-2.7,9.35,9.35,0,0,1-1-4.07H582A4.84,4.84,0,0,0,582.69,359.42Z"/><path class="cls-7" d="M53.32,385.16a7.49,7.49,0,0,0-4.4-1.29,7.92,7.92,0,0,0-3.72.81,7.43,7.43,0,0,0-2.55,2.2A9.38,9.38,0,0,0,41.17,390a13.94,13.94,0,0,0-.48,3.67,15.62,15.62,0,0,0,.48,3.93,9.48,9.48,0,0,0,1.48,3.23A7.25,7.25,0,0,0,45.21,403a7.94,7.94,0,0,0,3.74.82,7.19,7.19,0,0,0,2.84-.53,6.55,6.55,0,0,0,2.15-1.46,6.73,6.73,0,0,0,1.41-2.23,9.31,9.31,0,0,0,.61-2.79h3.23A11,11,0,0,1,56,404a10.24,10.24,0,0,1-7.35,2.55,11.82,11.82,0,0,1-4.93-1,9.81,9.81,0,0,1-3.5-2.67,11.4,11.4,0,0,1-2.09-4,16.89,16.89,0,0,1-.7-5,16.13,16.13,0,0,1,.75-5,12,12,0,0,1,2.19-4.06A10.28,10.28,0,0,1,44,382.15a11.59,11.59,0,0,1,4.94-1,12.55,12.55,0,0,1,3.61.51,9.8,9.8,0,0,1,3,1.49,8.34,8.34,0,0,1,2.21,2.47A8.94,8.94,0,0,1,59,389H55.72A6,6,0,0,0,53.32,385.16Z"/><path class="cls-7" d="M75.17,404.88a8,8,0,0,1-5,1.49,8.91,8.91,0,0,1-3.65-.68,7.1,7.1,0,0,1-2.6-1.9,8,8,0,0,1-1.58-2.92,14,14,0,0,1-.6-3.71,10.74,10.74,0,0,1,.61-3.67,8.71,8.71,0,0,1,1.72-2.89,7.87,7.87,0,0,1,2.62-1.91A8,8,0,0,1,70,388a7.3,7.3,0,0,1,3.9,1,7.8,7.8,0,0,1,2.48,2.47,9.84,9.84,0,0,1,1.29,3.26,14.19,14.19,0,0,1,.29,3.37H64.83a7.15,7.15,0,0,0,.27,2.19,5.21,5.21,0,0,0,1,1.84,4.9,4.9,0,0,0,1.73,1.27,6,6,0,0,0,2.49.48,5,5,0,0,0,3-.85,4.09,4.09,0,0,0,1.55-2.59h2.86A7.07,7.07,0,0,1,75.17,404.88Zm-.7-11.29a5,5,0,0,0-1-1.58A5.15,5.15,0,0,0,71.85,391a4.78,4.78,0,0,0-2-.4,4.89,4.89,0,0,0-2,.4A4.58,4.58,0,0,0,66.29,392a5.11,5.11,0,0,0-1,1.58,6.12,6.12,0,0,0-.44,1.92h10.1A6.05,6.05,0,0,0,74.47,393.59Z"/><path class="cls-7" d="M83.7,388.42v2.79h.07a6.08,6.08,0,0,1,5.71-3.2,7.55,7.55,0,0,1,2.89.48,4.66,4.66,0,0,1,2.87,3.35,10.51,10.51,0,0,1,.29,2.6V406H92.64V394.1a3.45,3.45,0,0,0-1-2.58,3.52,3.52,0,0,0-2.62-1,5.89,5.89,0,0,0-2.29.41,4.26,4.26,0,0,0-1.62,1.16,5.06,5.06,0,0,0-1,1.75,7.29,7.29,0,0,0-.32,2.19V406H81V388.42Z"/><path class="cls-7" d="M107.4,388.42V391h-3.5v10.92a3,3,0,0,0,.08.81.91.91,0,0,0,.32.48,1.43,1.43,0,0,0,.67.22,10.59,10.59,0,0,0,1.1.05h1.33V406h-2.21a10.53,10.53,0,0,1-1.92-.15,2.74,2.74,0,0,1-1.29-.56,2.45,2.45,0,0,1-.74-1.16,7,7,0,0,1-.23-2V391H98v-2.55h3v-5.27h2.89v5.27Z"/><path class="cls-7" d="M122.43,406v-2.79h-.07a5.91,5.91,0,0,1-2.35,2.4,7,7,0,0,1-3.36.76,8,8,0,0,1-2.89-.45,4.68,4.68,0,0,1-1.87-1.31,5,5,0,0,1-1-2,11,11,0,0,1-.29-2.6V388.42h2.89v11.9a3.49,3.49,0,0,0,1,2.59,3.53,3.53,0,0,0,2.61.95,5.94,5.94,0,0,0,2.3-.41,4.22,4.22,0,0,0,1.61-1.16,4.82,4.82,0,0,0,1-1.75,6.94,6.94,0,0,0,.33-2.19v-9.93h2.89V406Z"/><path class="cls-7" d="M132.12,388.42v3.71h.06a7.88,7.88,0,0,1,2.59-3.16,6.52,6.52,0,0,1,3.87-1v3.06a8.07,8.07,0,0,0-2.95.48,4.71,4.71,0,0,0-2,1.39,5.73,5.73,0,0,0-1.08,2.23,11.88,11.88,0,0,0-.34,3V406H129.4V388.42Z"/><path class="cls-7" d="M147.72,408.35a18.22,18.22,0,0,1-1,2.17,6,6,0,0,1-1.09,1.45,3.75,3.75,0,0,1-1.33.81,5,5,0,0,1-1.68.26,7,7,0,0,1-1-.07,5.2,5.2,0,0,1-1-.24v-2.65a4.79,4.79,0,0,0,.86.29,3.67,3.67,0,0,0,.84.12,2.41,2.41,0,0,0,1.47-.43,2.6,2.6,0,0,0,.91-1.2l1.19-3-7-17.48h3.26l5.13,14.38h.07l4.93-14.38h3.06Z"/><path class="cls-7" d="M182.42,385.16a7.51,7.51,0,0,0-4.4-1.29,7.93,7.93,0,0,0-3.73.81,7.43,7.43,0,0,0-2.55,2.2,9.38,9.38,0,0,0-1.48,3.14,14.37,14.37,0,0,0-.47,3.67,16.09,16.09,0,0,0,.47,3.93,9.48,9.48,0,0,0,1.48,3.23,7.28,7.28,0,0,0,2.57,2.19,7.91,7.91,0,0,0,3.74.82,7.26,7.26,0,0,0,2.84-.53,6.41,6.41,0,0,0,2.14-1.46,6.73,6.73,0,0,0,1.41-2.23,9,9,0,0,0,.61-2.79h3.23a11,11,0,0,1-3.16,7.14,10.23,10.23,0,0,1-7.34,2.55,11.78,11.78,0,0,1-4.93-1,9.64,9.64,0,0,1-3.5-2.67,11.58,11.58,0,0,1-2.1-4,17.24,17.24,0,0,1-.69-5,16.13,16.13,0,0,1,.75-5,11.86,11.86,0,0,1,2.19-4.06,10.15,10.15,0,0,1,3.6-2.74,11.61,11.61,0,0,1,5-1,12.43,12.43,0,0,1,3.6.51,9.74,9.74,0,0,1,3,1.49,8.48,8.48,0,0,1,2.21,2.47,9.12,9.12,0,0,1,1.16,3.41h-3.23A6,6,0,0,0,182.42,385.16Z"/><path class="cls-7" d="M191.41,393.61a8.31,8.31,0,0,1,1.63-2.93,7.71,7.71,0,0,1,2.69-1.95,9.76,9.76,0,0,1,7.36,0,7.82,7.82,0,0,1,2.67,1.95,8.31,8.31,0,0,1,1.63,2.93,11.78,11.78,0,0,1,.55,3.62,11.61,11.61,0,0,1-.55,3.6,8.31,8.31,0,0,1-1.63,2.91,7.66,7.66,0,0,1-2.67,1.94,10.16,10.16,0,0,1-7.36,0,7.56,7.56,0,0,1-2.69-1.94,8.31,8.31,0,0,1-1.63-2.91,11.61,11.61,0,0,1-.54-3.6A11.78,11.78,0,0,1,191.41,393.61Zm2.94,6.46a6.19,6.19,0,0,0,1.17,2.07,5.15,5.15,0,0,0,1.76,1.28,5.23,5.23,0,0,0,2.12.44,5.31,5.31,0,0,0,2.13-.44,5.21,5.21,0,0,0,1.75-1.28,5.86,5.86,0,0,0,1.17-2.07,9.59,9.59,0,0,0,0-5.68,6,6,0,0,0-1.17-2.09,5,5,0,0,0-1.75-1.29,5.15,5.15,0,0,0-2.13-.45,5.07,5.07,0,0,0-2.12.45,4.92,4.92,0,0,0-1.76,1.29,6.39,6.39,0,0,0-1.17,2.09,9.81,9.81,0,0,0,0,5.68Z"/><path class="cls-7" d="M214.39,381.72V406H211.5V381.72Z"/><path class="cls-7" d="M221.94,381.72V406h-2.89V381.72Z"/><path class="cls-7" d="M238.87,404.88a8,8,0,0,1-5,1.49,9,9,0,0,1-3.66-.68,7.18,7.18,0,0,1-2.6-1.9,8.15,8.15,0,0,1-1.58-2.92,14,14,0,0,1-.59-3.71,10.51,10.51,0,0,1,.61-3.67,8.71,8.71,0,0,1,1.72-2.89,7.83,7.83,0,0,1,2.61-1.91,8.08,8.08,0,0,1,3.32-.68,7.26,7.26,0,0,1,3.89,1,7.7,7.7,0,0,1,2.48,2.47,9.65,9.65,0,0,1,1.3,3.26,14.73,14.73,0,0,1,.29,3.37H228.54a6.86,6.86,0,0,0,.27,2.19,4.81,4.81,0,0,0,2.72,3.11,5.93,5.93,0,0,0,2.48.48,5,5,0,0,0,3-.85,4.14,4.14,0,0,0,1.55-2.59h2.85A7,7,0,0,1,238.87,404.88Zm-.69-11.29a4.91,4.91,0,0,0-2.62-2.63,5.22,5.22,0,0,0-4,0A4.58,4.58,0,0,0,230,392a5.11,5.11,0,0,0-1,1.58,5.85,5.85,0,0,0-.44,1.92h10.1A6.05,6.05,0,0,0,238.18,393.59Z"/><path class="cls-7" d="M257.88,411q-2,2.15-6.19,2.15a11.41,11.41,0,0,1-2.5-.28,7.54,7.54,0,0,1-2.31-.88,5.48,5.48,0,0,1-1.72-1.6,4.61,4.61,0,0,1-.75-2.41h2.89a2.14,2.14,0,0,0,.5,1.32,3.5,3.5,0,0,0,1.12.89,5.56,5.56,0,0,0,1.44.49,8,8,0,0,0,1.5.15,5.31,5.31,0,0,0,2.41-.49,4.52,4.52,0,0,0,1.64-1.36,5.56,5.56,0,0,0,.93-2.09,11.86,11.86,0,0,0,.29-2.69V403h-.07a4.9,4.9,0,0,1-2.26,2.4,7,7,0,0,1-3.21.76,7.85,7.85,0,0,1-3.44-.71,7.23,7.23,0,0,1-2.44-1.92,8.22,8.22,0,0,1-1.48-2.83,11.53,11.53,0,0,1-.5-3.41,13.47,13.47,0,0,1,.41-3.22,8.84,8.84,0,0,1,1.36-3,7.63,7.63,0,0,1,2.52-2.21,7.79,7.79,0,0,1,3.84-.87,6.47,6.47,0,0,1,3.06.74,5.07,5.07,0,0,1,2.18,2.19h0v-2.52h2.72V404.5C259.85,407.38,259.19,409.54,257.88,411Zm-3.69-7.9a4.72,4.72,0,0,0,1.61-1.56,7.34,7.34,0,0,0,.91-2.2,10.71,10.71,0,0,0,.28-2.45,9.59,9.59,0,0,0-.27-2.27,6.48,6.48,0,0,0-.86-2,4.55,4.55,0,0,0-1.55-1.44,4.64,4.64,0,0,0-2.31-.55,5,5,0,0,0-2.38.53A4.6,4.6,0,0,0,248,392.5a6.13,6.13,0,0,0-.92,2,10.09,10.09,0,0,0-.29,2.42,12.09,12.09,0,0,0,.24,2.38,6.77,6.77,0,0,0,.82,2.16,4.57,4.57,0,0,0,1.53,1.56,4.38,4.38,0,0,0,2.38.59A4.66,4.66,0,0,0,254.19,403.06Z"/><path class="cls-7" d="M276.65,404.88a8,8,0,0,1-5,1.49,8.91,8.91,0,0,1-3.65-.68,7.1,7.1,0,0,1-2.6-1.9,8,8,0,0,1-1.58-2.92,14,14,0,0,1-.6-3.71,10.51,10.51,0,0,1,.61-3.67,8.71,8.71,0,0,1,1.72-2.89,7.87,7.87,0,0,1,2.62-1.91,8,8,0,0,1,3.31-.68,7.3,7.3,0,0,1,3.9,1,7.8,7.8,0,0,1,2.48,2.47,9.84,9.84,0,0,1,1.29,3.26,14.19,14.19,0,0,1,.29,3.37H266.31a7.15,7.15,0,0,0,.27,2.19,5.05,5.05,0,0,0,1,1.84,4.9,4.9,0,0,0,1.73,1.27,5.93,5.93,0,0,0,2.48.48,5,5,0,0,0,3-.85,4.09,4.09,0,0,0,1.55-2.59h2.86A7.07,7.07,0,0,1,276.65,404.88Zm-.7-11.29A5,5,0,0,0,274.9,392a5.15,5.15,0,0,0-1.57-1.05,4.78,4.78,0,0,0-2-.4,4.86,4.86,0,0,0-2,.4,4.58,4.58,0,0,0-1.55,1.07,5.11,5.11,0,0,0-1,1.58,6.12,6.12,0,0,0-.44,1.92h10.1A6.05,6.05,0,0,0,276,393.59Z"/></g><g id="technoloogy-text"><path class="cls-1" d="M621.1,328.9v-4h28.55v4h-11.9v31.7H633V328.9Z"/><path class="cls-1" d="M667.7,359a11.71,11.71,0,0,1-7.3,2.2,13.16,13.16,0,0,1-5.37-1,10.6,10.6,0,0,1-3.83-2.8,11.81,11.81,0,0,1-2.32-4.3,20.72,20.72,0,0,1-.88-5.45,15.53,15.53,0,0,1,.9-5.4,13,13,0,0,1,2.52-4.25,11.54,11.54,0,0,1,8.73-3.8,10.54,10.54,0,0,1,5.73,1.43,11.27,11.27,0,0,1,3.65,3.62,14.51,14.51,0,0,1,1.89,4.8,19.91,19.91,0,0,1,.43,4.95H652.5a10.42,10.42,0,0,0,.4,3.23,7.36,7.36,0,0,0,1.45,2.7,7.28,7.28,0,0,0,2.55,1.87,8.74,8.74,0,0,0,3.65.7A7.36,7.36,0,0,0,665,356.2a6.05,6.05,0,0,0,2.28-3.8h4.2A10.37,10.37,0,0,1,667.7,359Zm-1-16.6a7.2,7.2,0,0,0-1.55-2.33,7.37,7.37,0,0,0-2.3-1.54,7.11,7.11,0,0,0-2.92-.58,7.34,7.34,0,0,0-3,.58,6.74,6.74,0,0,0-2.27,1.57,7.64,7.64,0,0,0-1.5,2.33,8.8,8.8,0,0,0-.65,2.82h14.85A8.62,8.62,0,0,0,666.67,342.35Z"/><path class="cls-1" d="M693.75,339.25a6.46,6.46,0,0,0-4.3-1.35,7.89,7.89,0,0,0-3.85.85,7,7,0,0,0-2.48,2.25,9.63,9.63,0,0,0-1.32,3.23,17.28,17.28,0,0,0-.4,3.77,14.52,14.52,0,0,0,.42,3.5,9.51,9.51,0,0,0,1.33,3,6.6,6.6,0,0,0,2.35,2.13,7.06,7.06,0,0,0,3.45.8,6.94,6.94,0,0,0,4.92-1.65,7.44,7.44,0,0,0,2.18-4.65h4.35a11.9,11.9,0,0,1-3.58,7.4,11.22,11.22,0,0,1-7.82,2.6,13.55,13.55,0,0,1-5.23-.95,10.14,10.14,0,0,1-3.8-2.7,11.9,11.9,0,0,1-2.3-4.17,17.69,17.69,0,0,1-.77-5.33,18.93,18.93,0,0,1,.75-5.42,12.59,12.59,0,0,1,2.27-4.4,10.59,10.59,0,0,1,3.83-2.95,12.46,12.46,0,0,1,5.35-1.08,15.55,15.55,0,0,1,4.12.53,9.83,9.83,0,0,1,3.4,1.62,8.71,8.71,0,0,1,2.43,2.78,10.29,10.29,0,0,1,1.2,4h-4.4A6.45,6.45,0,0,0,693.75,339.25Z"/><path class="cls-1" d="M711.45,324.9v13.65h.1a5.72,5.72,0,0,1,1.4-2,7.89,7.89,0,0,1,2-1.34,10.81,10.81,0,0,1,2.35-.78,11.68,11.68,0,0,1,2.38-.25,11.18,11.18,0,0,1,4.25.7,7.08,7.08,0,0,1,2.75,1.95,7.16,7.16,0,0,1,1.47,3,15.75,15.75,0,0,1,.43,3.83v17h-4.25V343.1a5.14,5.14,0,0,0-1.4-3.8,5.22,5.22,0,0,0-3.85-1.4,8.69,8.69,0,0,0-3.38.6,6.32,6.32,0,0,0-2.37,1.7,7.26,7.26,0,0,0-1.43,2.57,10.73,10.73,0,0,0-.47,3.23v14.6H707.2V324.9Z"/><path class="cls-1" d="M741.05,334.75v4.1h.1a9,9,0,0,1,8.4-4.7,11.14,11.14,0,0,1,4.25.7,7.08,7.08,0,0,1,2.75,1.95,7.16,7.16,0,0,1,1.47,3,15.75,15.75,0,0,1,.43,3.83v17H754.2V343.1a5.14,5.14,0,0,0-1.4-3.8,5.22,5.22,0,0,0-3.85-1.4,8.69,8.69,0,0,0-3.38.6,6.32,6.32,0,0,0-2.37,1.7,7.26,7.26,0,0,0-1.43,2.57,10.73,10.73,0,0,0-.47,3.23v14.6h-4.25V334.75Z"/><path class="cls-1" d="M766.3,342.38a11.91,11.91,0,0,1,2.4-4.3,11.28,11.28,0,0,1,3.95-2.88,14.46,14.46,0,0,1,10.82,0,11.38,11.38,0,0,1,3.93,2.88,12.06,12.06,0,0,1,2.4,4.3,17.24,17.24,0,0,1,.8,5.32,17.06,17.06,0,0,1-.8,5.3,12.1,12.1,0,0,1-2.4,4.27,11.06,11.06,0,0,1-3.93,2.85,14.72,14.72,0,0,1-10.82,0,11,11,0,0,1-3.95-2.85,12,12,0,0,1-2.4-4.27,17.06,17.06,0,0,1-.8-5.3A17.24,17.24,0,0,1,766.3,342.38Zm4.32,9.5a8.94,8.94,0,0,0,1.73,3.05,7.5,7.5,0,0,0,2.57,1.87,7.77,7.77,0,0,0,3.13.65,7.68,7.68,0,0,0,3.12-.65,7.44,7.44,0,0,0,2.58-1.87,8.77,8.77,0,0,0,1.72-3.05,14.18,14.18,0,0,0,0-8.36,9,9,0,0,0-1.72-3.07,7.27,7.27,0,0,0-2.58-1.9,7.68,7.68,0,0,0-3.12-.65,7.77,7.77,0,0,0-3.13.65,7.33,7.33,0,0,0-2.57,1.9,9.14,9.14,0,0,0-1.73,3.07,14.4,14.4,0,0,0,0,8.36Z"/><path class="cls-1" d="M802.15,324.9v35.7H797.9V324.9Z"/><path class="cls-1" d="M810.2,342.38a11.91,11.91,0,0,1,2.4-4.3,11.19,11.19,0,0,1,3.95-2.88,14.46,14.46,0,0,1,10.82,0,11.38,11.38,0,0,1,3.93,2.88,12.21,12.21,0,0,1,2.4,4.3,17.24,17.24,0,0,1,.8,5.32,17.06,17.06,0,0,1-.8,5.3,12.25,12.25,0,0,1-2.4,4.27,11.06,11.06,0,0,1-3.93,2.85,14.72,14.72,0,0,1-10.82,0,10.88,10.88,0,0,1-3.95-2.85,12,12,0,0,1-2.4-4.27,16.77,16.77,0,0,1-.8-5.3A16.94,16.94,0,0,1,810.2,342.38Zm4.32,9.5a8.78,8.78,0,0,0,1.73,3.05,7.5,7.5,0,0,0,2.57,1.87,7.84,7.84,0,0,0,6.25,0,7.63,7.63,0,0,0,2.58-1.87,8.77,8.77,0,0,0,1.72-3.05,14.18,14.18,0,0,0,0-8.36,9,9,0,0,0-1.72-3.07,7.46,7.46,0,0,0-2.58-1.9,7.84,7.84,0,0,0-6.25,0,7.33,7.33,0,0,0-2.57,1.9,9,9,0,0,0-1.73,3.07,14.4,14.4,0,0,0,0,8.36Z"/><path class="cls-1" d="M861,367.9q-2.91,3.15-9.1,3.15a17.41,17.41,0,0,1-3.68-.4,11.38,11.38,0,0,1-3.4-1.3,7.76,7.76,0,0,1-2.52-2.35,6.6,6.6,0,0,1-1.1-3.55h4.25a3.11,3.11,0,0,0,.72,1.95,5.29,5.29,0,0,0,1.65,1.3,8.5,8.5,0,0,0,2.13.73,11.39,11.39,0,0,0,2.2.22,7.94,7.94,0,0,0,3.55-.72,7,7,0,0,0,2.4-2,8.27,8.27,0,0,0,1.37-3.08,16.84,16.84,0,0,0,.43-4v-1.7h-.1a7.21,7.21,0,0,1-3.33,3.53,10.31,10.31,0,0,1-4.72,1.12,11.36,11.36,0,0,1-5.05-1.05,10.47,10.47,0,0,1-3.6-2.82,12,12,0,0,1-2.18-4.15,17.28,17.28,0,0,1-.72-5,19.58,19.58,0,0,1,.6-4.72,12.68,12.68,0,0,1,2-4.4,10.73,10.73,0,0,1,3.7-3.25,11.49,11.49,0,0,1,5.65-1.28,9.52,9.52,0,0,1,4.5,1.08,7.59,7.59,0,0,1,3.2,3.22h.05v-3.7h4V358.4Q863.85,364.75,861,367.9Zm-5.43-11.63A7,7,0,0,0,857.9,354a10.55,10.55,0,0,0,1.32-3.23,15.81,15.81,0,0,0,.43-3.6,14.55,14.55,0,0,0-.4-3.35,9.44,9.44,0,0,0-1.28-3,6.53,6.53,0,0,0-2.27-2.13,6.81,6.81,0,0,0-3.4-.8,7.27,7.27,0,0,0-3.5.78,6.71,6.71,0,0,0-2.38,2.07,8.73,8.73,0,0,0-1.35,3,14.75,14.75,0,0,0-.42,3.55,17.31,17.31,0,0,0,.35,3.5,9.89,9.89,0,0,0,1.2,3.18,6.58,6.58,0,0,0,2.25,2.29,6.42,6.42,0,0,0,3.5.88A6.8,6.8,0,0,0,855.52,356.27Z"/><path class="cls-1" d="M882.45,364.05a27.52,27.52,0,0,1-1.48,3.2,8.72,8.72,0,0,1-1.6,2.13,5.37,5.37,0,0,1-2,1.2A7.5,7.5,0,0,1,875,371a10.8,10.8,0,0,1-1.5-.1,7,7,0,0,1-1.45-.35v-3.9a6.3,6.3,0,0,0,1.27.42,5.2,5.2,0,0,0,1.23.18,3.68,3.68,0,0,0,2.17-.62A3.87,3.87,0,0,0,878,364.8l1.75-4.35-10.25-25.7h4.8l7.55,21.15h.1l7.25-21.15h4.5Z"/></g><g id="smallGreens"><rect class="cls-5" y="27" width="27" height="162"/><rect class="cls-5" x="990" y="252" width="34" height="50"/><rect class="cls-5" x="945" y="405" width="9" height="171"/><polygon class="cls-5" points="621 657 558 657 558 666 621 666 621 684 693 684 693 666 693 657 621 657"/><rect class="cls-5" x="657" y="720" width="54" height="27"/><circle class="cls-5" cx="630" cy="216" r="38"/></g><g id="smallOranges"><path class="cls-4" d="M72,768A77.33,77.33,0,0,0,0,696v72Z"/><rect class="cls-4" x="441" y="603" width="9" height="99"/><rect class="cls-4" x="639" y="630" width="63" height="18"/><rect class="cls-4" x="675" y="612" width="27" height="9"/><rect class="cls-4" x="385" y="151" width="135" height="29"/><rect class="cls-4" x="302" y="144" width="8" height="80"/><rect class="cls-4" x="36" y="211" width="45" height="45"/><rect class="cls-4" x="155" y="50" width="30" height="30"/><rect class="cls-4" x="155" y="90" width="30" height="30"/><rect class="cls-4" x="155" y="129" width="30" height="30"/><rect class="cls-4" x="155" y="169" width="30" height="30"/><rect class="cls-4" x="516" y="447" width="30" height="30"/><rect class="cls-4" x="516" y="487" width="30" height="30"/><rect class="cls-4" x="516" y="526" width="30" height="30"/><rect class="cls-4" x="516" y="566" width="30" height="30"/></g><g id="smallWhites"><polygon class="cls-1" points="933 693 933 729 900 729 900 768 933 768 943 768 1024 768 1024 693 933 693"/><rect class="cls-1" x="18" y="126" width="27" height="135"/><rect class="cls-1" x="441" y="693" width="9" height="75"/><path class="cls-1" d="M62.83,768A67.48,67.48,0,0,0,0,705.17V768Z"/><rect class="cls-1" x="432" y="193" width="126" height="6"/><rect class="cls-1" x="115" y="118" width="4" height="106"/><rect class="cls-1" x="119" y="233" width="191" height="10"/><rect class="cls-1" x="592" y="511" width="176" height="21"/></g><g id="miisc"><rect class="cls-4" x="945" y="702" width="9" height="27"/><rect class="cls-3" x="633" y="484" width="180" height="6"/><rect class="cls-3" x="850" y="384" width="38" height="38"/><rect class="cls-3" x="252" y="54" width="381" height="7"/><rect class="cls-2" x="769" y="12" width="34" height="187" transform="translate(1572 211) rotate(180)"/><rect class="cls-2" x="752" y="12" width="4" height="184"/><rect class="cls-1" x="768" y="66" width="23" height="105"/><circle class="cls-2" cx="587" cy="216" r="38"/><rect class="cls-2" x="972" y="715" width="35" height="35"/><rect class="cls-4" x="835" y="42" width="106" height="5"/><rect class="cls-4" x="835" y="59" width="106" height="5"/><rect class="cls-4" x="835" y="76" width="106" height="5"/><rect class="cls-4" x="835" y="93" width="106" height="5"/><rect class="cls-4" x="963" y="454" width="3" height="122"/><rect class="cls-4" x="971" y="454" width="3" height="122"/><rect class="cls-4" x="980" y="454" width="3" height="122"/><rect class="cls-2" x="607" y="639" width="50" height="9"/><rect class="cls-1" x="441" y="432" width="9" height="54"/><circle class="cls-1" cx="114" cy="710" r="20"/><circle class="cls-1" cx="164.33" cy="710" r="20"/><circle class="cls-1" cx="214.67" cy="710" r="20"/><circle class="cls-1" cx="265" cy="710" r="20"/><rect class="cls-4" x="791" y="632" width="106" height="5"/><rect class="cls-4" x="791" y="649" width="106" height="5"/><rect class="cls-4" x="791" y="666" width="106" height="5"/><rect class="cls-4" x="791" y="683" width="106" height="5"/></g></svg>